<svg width="1440" height="290" viewBox="0 0 1440 290" fill="none" xmlns="http://www.w3.org/2000/svg">
<path d="M200.877 290H0V141.431C6.45142 136.511 12.9809 131.676 19.587 126.936C73.7414 88.0778 142.787 48.3555 230.408 23.6878C264.104 14.2013 308.377 4.4127 361.019 1.13154C420.634 -2.58425 483.55 2.70256 534.932 19.202C580.142 33.7195 602.352 52.4261 613.95 66.0292C621.035 74.3387 625.942 82.8512 629.356 91.1692C728.912 35.8053 928.163 53.9573 982.011 107.245C1111.66 75.7027 1308.58 113.452 1287.83 184.717L1274.76 229.57C1332.07 198.505 1388.42 165.117 1440 130.347V290H259.316C255.748 281.213 255.925 271.718 260.983 261.622C268.849 245.92 275.831 230.405 281.674 215.51C253.983 237.955 226.888 263.142 200.877 290Z" fill="#CD3D55"/>
</svg>
