<svg width="51" height="47" viewBox="0 0 51 47" fill="none" xmlns="http://www.w3.org/2000/svg">
<rect width="51" height="47" fill="#9E9E9E"/>
<path d="M-4677 -4930C-4677 -4931.1 -4676.1 -4932 -4675 -4932H8678C8679.1 -4932 8680 -4931.1 8680 -4930V4711C8680 4712.1 8679.1 4713 8678 4713H-4675C-4676.1 4713 -4677 4712.1 -4677 4711V-4930Z" fill="#444444"/>
<path d="M-4675 -4931H8678V-4933H-4675V-4931ZM8679 -4930V4711H8681V-4930H8679ZM8678 4712H-4675V4714H8678V4712ZM-4676 4711V-4930H-4678V4711H-4676ZM-4675 4712C-4675.55 4712 -4676 4711.55 -4676 4711H-4678C-4678 4712.66 -4676.66 4714 -4675 4714V4712ZM8679 4711C8679 4711.55 8678.55 4712 8678 4712V4714C8679.66 4714 8681 4712.66 8681 4711H8679ZM8678 -4931C8678.55 -4931 8679 -4930.55 8679 -4930H8681C8681 -4931.66 8679.66 -4933 8678 -4933V-4931ZM-4675 -4933C-4676.66 -4933 -4678 -4931.66 -4678 -4930H-4676C-4676 -4930.55 -4675.55 -4931 -4675 -4931V-4933Z" fill="white" fill-opacity="0.1"/>
<g clip-path="url(#clip0_0_1)">
<rect width="1440" height="4455" transform="translate(-980 -2721)" fill="#FFEEE9"/>
<rect width="1440" height="559" transform="translate(-980 -390)" fill="white"/>
<rect width="360" height="131" transform="translate(-40 -42)" fill="#CD3D55"/>
<path d="M17.3417 19.3056C15.0836 17.4881 13.1832 15.1478 12.3327 12.4078C11.6519 10.2092 11.9293 7.36837 13.9764 6.24573C15.6659 5.31832 17.8964 6.02286 19.2627 7.37106C20.6267 8.71926 21.3259 10.5646 21.9884 12.3498C22.3872 13.4257 22.7861 14.5016 23.185 15.5775C23.3822 11.3588 24.1501 7.16617 25.466 3.14449C25.8809 1.8738 26.6328 0.399336 27.9922 0.326096C29.6038 0.239376 30.4657 2.14564 30.711 3.70727C31.5042 8.73027 30.6422 13.9701 28.398 18.5431C27.5933 20.1795 26.3508 23.3154 24.2487 23.3232C22.1993 23.3306 18.8409 20.5129 17.3417 19.3056Z" fill="#F89828"/>
<path d="M23.3951 33.479C22.7012 36.3268 21.3711 39.0803 19.2177 41.0574C17.4892 42.6424 14.754 43.641 12.833 42.2784C11.2468 41.1542 10.9281 38.8211 11.5767 36.9887C12.2262 35.1583 13.6217 33.7121 14.9776 32.3256C15.795 31.4904 16.6124 30.6552 17.4298 29.8199C13.4611 31.4976 9.26888 32.6462 4.99645 33.2226C3.64689 33.4055 1.96364 33.3724 1.30679 32.1717C0.528178 30.7482 1.90911 29.1276 3.2402 28.2179C7.51984 25.2881 12.7167 23.7639 17.8992 23.7869C19.7544 23.7966 23.1796 23.5435 24.0983 25.4466C24.9938 27.302 23.8564 31.5879 23.3951 33.479Z" fill="#F89828"/>
<path d="M34.0616 21.9375C36.9914 21.8527 39.9988 22.4065 42.4755 23.9596C44.4616 25.2068 46.1487 27.58 45.3432 29.7932C44.6791 31.6205 42.5137 32.5454 40.5749 32.4051C38.6379 32.2633 36.8738 31.3005 35.1778 30.36C34.156 29.7929 33.1342 29.2258 32.1123 28.6587C34.7809 32.0416 36.9983 35.7802 38.6852 39.7476C39.2189 41.0006 39.6326 42.6325 38.6486 43.5838C37.4821 44.7115 35.5537 43.8089 34.3241 42.7661C30.3658 39.4149 27.5202 34.8069 26.1704 29.8033C25.6885 28.0117 24.5376 24.7757 26.1296 23.3859C27.6818 22.0312 32.1159 21.9934 34.0616 21.9375Z" fill="#F89828"/>
</g>
<defs>
<clipPath id="clip0_0_1">
<rect width="1440" height="4455" fill="white" transform="translate(-980 -2721)"/>
</clipPath>
</defs>
</svg>
