<svg width="51" height="47" viewBox="0 0 51 47" fill="none" xmlns="http://www.w3.org/2000/svg">
<rect width="51" height="47" fill="#9E9E9E"/>
<path d="M-3877 -4930C-3877 -4931.1 -3876.1 -4932 -3875 -4932H9478C9479.1 -4932 9480 -4931.1 9480 -4930V4711C9480 4712.1 9479.1 4713 9478 4713H-3875C-3876.1 4713 -3877 4712.1 -3877 4711V-4930Z" fill="#444444"/>
<path d="M-3875 -4931H9478V-4933H-3875V-4931ZM9479 -4930V4711H9481V-4930H9479ZM9478 4712H-3875V4714H9478V4712ZM-3876 4711V-4930H-3878V4711H-3876ZM-3875 4712C-3875.55 4712 -3876 4711.55 -3876 4711H-3878C-3878 4712.66 -3876.66 4714 -3875 4714V4712ZM9479 4711C9479 4711.55 9478.55 4712 9478 4712V4714C9479.66 4714 9481 4712.66 9481 4711H9479ZM9478 -4931C9478.55 -4931 9479 -4930.55 9479 -4930H9481C9481 -4931.66 9479.66 -4933 9478 -4933V-4931ZM-3875 -4933C-3876.66 -4933 -3878 -4931.66 -3878 -4930H-3876C-3876 -4930.55 -3875.55 -4931 -3875 -4931V-4933Z" fill="white" fill-opacity="0.1"/>
<g clip-path="url(#clip0_0_1)">
<rect width="1440" height="4455" transform="translate(-180 -2721)" fill="#FFEEE9"/>
<rect width="1440" height="559" transform="translate(-180 -390)" fill="white"/>
<rect width="360" height="131" transform="translate(-40 -42)" fill="#CD3D55"/>
<path d="M17.3417 19.3056C15.0837 17.4881 13.1833 15.1478 12.3328 12.4078C11.652 10.2092 11.9293 7.36837 13.9765 6.24573C15.666 5.31832 17.8965 6.02286 19.2628 7.37106C20.6268 8.71926 21.3259 10.5646 21.9884 12.3498C22.3873 13.4257 22.7862 14.5016 23.1851 15.5775C23.3822 11.3588 24.1502 7.16617 25.466 3.14449C25.8809 1.8738 26.6329 0.399336 27.9923 0.326096C29.6038 0.239376 30.4658 2.14564 30.7111 3.70727C31.5042 8.73027 30.6423 13.9701 28.398 18.5431C27.5934 20.1795 26.3509 23.3154 24.2488 23.3232C22.1993 23.3306 18.841 20.5129 17.3417 19.3056Z" fill="#F89828"/>
</g>
<defs>
<clipPath id="clip0_0_1">
<rect width="1440" height="4455" fill="white" transform="translate(-180 -2721)"/>
</clipPath>
</defs>
</svg>
